HIERARCHY
ROOT mixamorig:Hips
{
	OFFSET 0.000000 201.639420 0.000000
	CHANNELS 6 Xposition Yposition Zposition Xrotation Yrotation Zrotation
	JOINT mixamorig:Spine
	{
		OFFSET 0.006200 19.524994 -2.481800
		CHANNELS 3 Xrotation Yrotation Zrotation
		JOINT mixamorig:Spine1
		{
			OFFSET -0.000900 22.835007 -2.825400
			CHANNELS 3 Xrotation Yrotation Zrotation
			JOINT mixamorig:Spine2
			{
				OFFSET -0.020600 26.552490 -3.193300
				CHANNELS 3 Xrotation Yrotation Zrotation
				JOINT mixamorig:Neck
				{
					OFFSET -0.060000 30.701813 1.352200
					CHANNELS 3 Xrotation Yrotation Zrotation
					JOINT mixamorig:Head
					{
						OFFSET -0.087200 22.547607 3.670900
						CHANNELS 3 Xrotation Yrotation Zrotation
						JOINT mixamorig:HeadTop_End
						{
							OFFSET -0.830600 40.355194 7.893500
							CHANNELS 3 Xrotation Yrotation Zrotation
							End Site
							{
								OFFSET 0.000000 30.592346 0.000000
							}
						}
						JOINT mixamorig:RightEye
						{
							OFFSET -6.302100 18.118591 16.197100
							CHANNELS 3 Xrotation Yrotation Zrotation
							End Site
							{
								OFFSET 0.000000 30.592346 0.000000
							}
						}
						JOINT mixamorig:LeftEye
						{
							OFFSET 6.741500 18.382690 16.401899
							CHANNELS 3 Xrotation Yrotation Zrotation
							End Site
							{
								OFFSET 0.000000 30.592346 0.000000
							}
						}
					}
				}
				JOINT mixamorig:LeftShoulder
				{
					OFFSET 11.924900 18.230499 1.425400
					CHANNELS 3 Xrotation Yrotation Zrotation
					JOINT mixamorig:LeftArm
					{
						OFFSET 25.435989 -0.697632 -5.229300
						CHANNELS 3 Xrotation Yrotation Zrotation
						JOINT mixamorig:LeftForeArm
						{
							OFFSET 54.684776 0.000000 0.000000
							CHANNELS 3 Xrotation Yrotation Zrotation
							JOINT mixamorig:LeftHand
							{
								OFFSET 55.098175 0.000000 0.000000
								CHANNELS 3 Xrotation Yrotation Zrotation
								JOINT mixamorig:LeftHandMiddle1
								{
									OFFSET 23.369751 0.000000 0.000000
									CHANNELS 3 Xrotation Yrotation Zrotation
									JOINT mixamorig:LeftHandMiddle2
									{
										OFFSET 6.378677 0.000000 0.000000
										CHANNELS 3 Xrotation Yrotation Zrotation
										JOINT mixamorig:LeftHandMiddle3
										{
											OFFSET 6.148331 0.000000 0.000000
											CHANNELS 3 Xrotation Yrotation Zrotation
											JOINT mixamorig:LeftHandMiddle4
											{
												OFFSET 6.582504 0.000000 0.000000
												CHANNELS 3 Xrotation Yrotation Zrotation
												End Site
												{
													OFFSET -1.168900 6.395691 1.028606
												}
											}
										}
									}
								}
								JOINT mixamorig:LeftHandThumb1
								{
									OFFSET 7.235672 -3.848206 5.434273
									CHANNELS 3 Xrotation Yrotation Zrotation
									JOINT mixamorig:LeftHandThumb2
									{
										OFFSET 6.568451 -3.792297 3.792300
										CHANNELS 3 Xrotation Yrotation Zrotation
										JOINT mixamorig:LeftHandThumb3
										{
											OFFSET 6.063080 -3.500519 3.500518
											CHANNELS 3 Xrotation Yrotation Zrotation
											JOINT mixamorig:LeftHandThumb4
											{
												OFFSET 4.793182 -2.767334 2.767349
												CHANNELS 3 Xrotation Yrotation Zrotation
												End Site
												{
													OFFSET 0.101639 6.054260 1.275483
												}
											}
										}
									}
								}
								JOINT mixamorig:LeftHandIndex1
								{
									OFFSET 23.101074 -0.309540 4.992809
									CHANNELS 3 Xrotation Yrotation Zrotation
									JOINT mixamorig:LeftHandIndex2
									{
										OFFSET 6.226883 0.000000 0.000000
										CHANNELS 3 Xrotation Yrotation Zrotation
										JOINT mixamorig:LeftHandIndex3
										{
											OFFSET 6.094330 0.000000 0.000000
											CHANNELS 3 Xrotation Yrotation Zrotation
											JOINT mixamorig:LeftHandIndex4
											{
												OFFSET 5.482605 0.000000 0.000000
												CHANNELS 3 Xrotation Yrotation Zrotation
												End Site
												{
													OFFSET -1.427902 5.233032 0.797164
												}
											}
										}
									}
								}
								JOINT mixamorig:LeftHandRing1
								{
									OFFSET 22.299240 0.021149 -3.964172
									CHANNELS 3 Xrotation Yrotation Zrotation
									JOINT mixamorig:LeftHandRing2
									{
										OFFSET 6.321869 0.000000 0.000000
										CHANNELS 3 Xrotation Yrotation Zrotation
										JOINT mixamorig:LeftHandRing3
										{
											OFFSET 5.899796 0.000000 0.000000
											CHANNELS 3 Xrotation Yrotation Zrotation
											JOINT mixamorig:LeftHandRing4
											{
												OFFSET 6.517899 0.000000 0.000000
												CHANNELS 3 Xrotation Yrotation Zrotation
												End Site
												{
													OFFSET -1.637299 6.232208 0.980890
												}
											}
										}
									}
								}
								JOINT mixamorig:LeftHandPinky1
								{
									OFFSET 20.463791 -0.302338 -8.562233
									CHANNELS 3 Xrotation Yrotation Zrotation
									JOINT mixamorig:LeftHandPinky2
									{
										OFFSET 6.908646 0.000000 0.000000
										CHANNELS 3 Xrotation Yrotation Zrotation
										JOINT mixamorig:LeftHandPinky3
										{
											OFFSET 4.622849 0.000000 0.000000
											CHANNELS 3 Xrotation Yrotation Zrotation
											JOINT mixamorig:LeftHandPinky4
											{
												OFFSET 5.216080 0.000000 0.000000
												CHANNELS 3 Xrotation Yrotation Zrotation
												End Site
												{
													OFFSET -0.606308 5.116241 0.814926
												}
											}
										}
									}
								}
							}
						}
					}
				}
				JOINT mixamorig:RightShoulder
				{
					OFFSET -12.001300 18.284088 1.348900
					CHANNELS 3 Xrotation Yrotation Zrotation
					JOINT mixamorig:RightArm
					{
						OFFSET -25.308500 -0.751312 -5.164599
						CHANNELS 3 Xrotation Yrotation Zrotation
						JOINT mixamorig:RightForeArm
						{
							OFFSET -54.684429 0.000000 0.000000
							CHANNELS 3 Xrotation Yrotation Zrotation
							JOINT mixamorig:RightHand
							{
								OFFSET -55.150291 0.000000 0.000000
								CHANNELS 3 Xrotation Yrotation Zrotation
								JOINT mixamorig:RightHandMiddle1
								{
									OFFSET -23.317566 0.000000 0.000000
									CHANNELS 3 Xrotation Yrotation Zrotation
									JOINT mixamorig:RightHandMiddle2
									{
										OFFSET -6.378403 0.000000 0.000000
										CHANNELS 3 Xrotation Yrotation Zrotation
										JOINT mixamorig:RightHandMiddle3
										{
											OFFSET -6.148193 0.000000 0.000000
											CHANNELS 3 Xrotation Yrotation Zrotation
											JOINT mixamorig:RightHandMiddle4
											{
												OFFSET -6.583389 0.000000 0.000000
												CHANNELS 3 Xrotation Yrotation Zrotation
												End Site
												{
													OFFSET 1.171692 6.395905 1.029786
												}
											}
										}
									}
								}
								JOINT mixamorig:RightHandThumb1
								{
									OFFSET -7.190521 -3.860474 5.435846
									CHANNELS 3 Xrotation Yrotation Zrotation
									JOINT mixamorig:RightHandThumb2
									{
										OFFSET -6.567429 -3.791718 3.791708
										CHANNELS 3 Xrotation Yrotation Zrotation
										JOINT mixamorig:RightHandThumb3
										{
											OFFSET -6.062469 -3.500153 3.500166
											CHANNELS 3 Xrotation Yrotation Zrotation
											JOINT mixamorig:RightHandThumb4
											{
												OFFSET -4.792618 -2.767029 2.767022
												CHANNELS 3 Xrotation Yrotation Zrotation
												End Site
												{
													OFFSET -0.100327 6.053253 1.276754
												}
											}
										}
									}
								}
								JOINT mixamorig:RightHandIndex1
								{
									OFFSET -23.048981 -0.310791 4.992554
									CHANNELS 3 Xrotation Yrotation Zrotation
									JOINT mixamorig:RightHandIndex2
									{
										OFFSET -6.227539 0.000000 0.000000
										CHANNELS 3 Xrotation Yrotation Zrotation
										JOINT mixamorig:RightHandIndex3
										{
											OFFSET -6.095047 0.000000 0.000000
											CHANNELS 3 Xrotation Yrotation Zrotation
											JOINT mixamorig:RightHandIndex4
											{
												OFFSET -5.484772 0.000000 0.000000
												CHANNELS 3 Xrotation Yrotation Zrotation
												End Site
												{
													OFFSET 1.420593 5.237305 0.797056
												}
											}
										}
									}
								}
								JOINT mixamorig:RightHandRing1
								{
									OFFSET -22.246323 0.020569 -3.963762
									CHANNELS 3 Xrotation Yrotation Zrotation
									JOINT mixamorig:RightHandRing2
									{
										OFFSET -6.322128 0.000000 0.000000
										CHANNELS 3 Xrotation Yrotation Zrotation
										JOINT mixamorig:RightHandRing3
										{
											OFFSET -5.900024 0.000000 0.000000
											CHANNELS 3 Xrotation Yrotation Zrotation
											JOINT mixamorig:RightHandRing4
											{
												OFFSET -6.518356 0.000000 0.000000
												CHANNELS 3 Xrotation Yrotation Zrotation
												End Site
												{
													OFFSET 1.636398 6.232697 0.982186
												}
											}
										}
									}
								}
								JOINT mixamorig:RightHandPinky1
								{
									OFFSET -20.411011 -0.303314 -8.561701
									CHANNELS 3 Xrotation Yrotation Zrotation
									JOINT mixamorig:RightHandPinky2
									{
										OFFSET -6.907349 0.000000 0.000000
										CHANNELS 3 Xrotation Yrotation Zrotation
										JOINT mixamorig:RightHandPinky3
										{
											OFFSET -4.623840 0.000000 0.000000
											CHANNELS 3 Xrotation Yrotation Zrotation
											JOINT mixamorig:RightHandPinky4
											{
												OFFSET -5.218353 0.000000 0.000000
												CHANNELS 3 Xrotation Yrotation Zrotation
												End Site
												{
													OFFSET 0.602097 5.118835 0.816273
												}
											}
										}
									}
								}
							}
						}
					}
				}
			}
		}
	}
	JOINT mixamorig:LeftUpLeg
	{
		OFFSET 18.168400 -13.561905 -0.039000
		CHANNELS 3 Xrotation Yrotation Zrotation
		JOINT mixamorig:LeftLeg
		{
			OFFSET 0.577358 -80.825211 -3.695000
			CHANNELS 3 Xrotation Yrotation Zrotation
			JOINT mixamorig:LeftFoot
			{
				OFFSET -0.577356 -83.370262 -6.520700
				CHANNELS 3 Xrotation Yrotation Zrotation
				JOINT mixamorig:LeftToeBase
				{
					OFFSET 0.750401 -20.798306 25.135401
					CHANNELS 3 Xrotation Yrotation Zrotation
					JOINT mixamorig:LeftToe_End
					{
						OFFSET -0.000500 0.001200 19.917799
						CHANNELS 3 Xrotation Yrotation Zrotation
						End Site
						{
							OFFSET 0.000000 19.917805 0.000000
						}
					}
				}
			}
		}
	}
	JOINT mixamorig:RightUpLeg
	{
		OFFSET -18.162500 -13.585098 -0.041000
		CHANNELS 3 Xrotation Yrotation Zrotation
		JOINT mixamorig:RightLeg
		{
			OFFSET -0.595024 -80.945297 -3.631900
			CHANNELS 3 Xrotation Yrotation Zrotation
			JOINT mixamorig:RightFoot
			{
				OFFSET 0.595024 -83.218193 -6.561200
				CHANNELS 3 Xrotation Yrotation Zrotation
				JOINT mixamorig:RightToeBase
				{
					OFFSET -0.753601 -20.807106 25.115000
					CHANNELS 3 Xrotation Yrotation Zrotation
					JOINT mixamorig:RightToe_End
					{
						OFFSET 0.000299 0.001700 19.918200
						CHANNELS 3 Xrotation Yrotation Zrotation
						End Site
						{
							OFFSET 0.000000 19.918203 0.000000
						}
					}
				}
			}
		}
	}
}
MOTION
Frames: 4
Frame Time: 0.033333
-1.081051 154.417130 -2.600704 -13.571622 0.125949 -6.938849 30.005888 1.968403 7.479605 -1.136889 0.050285 -0.859474 -1.136417 0.016623 -0.864275 11.177121 -0.679992 0.453477 -13.307305 -3.461820 -0.009658 0.000001 -0.000000 -0.000000 0.000001 -0.000000 -0.000000 0.000001 -0.000000 -0.000000 0.676326 -4.698320 -2.859587 -11.387020 -42.308002 -67.128561 0.000002 -42.620223 -0.000016 31.477787 6.942077 47.304244 -0.095685 -1.004162 -4.401380 0.614862 2.848900 -24.353265 0.057804 0.892141 -7.413838 0.000001 -0.000000 0.000001 1.252324 -1.347057 5.133542 4.902630 12.386832 -0.065192 -0.293903 2.512370 2.362575 0.000001 0.000000 -0.000000 -1.237519 -5.971602 -11.069600 0.584547 2.781043 -23.735836 0.113904 1.249749 -10.414821 -0.000002 -0.000002 0.000004 0.040163 1.845853 -1.200193 0.405202 2.331444 -19.716535 0.300308 2.015100 -16.950930 -0.000002 0.000000 0.000001 -0.534222 12.617390 3.214803 0.610362 -1.234964 -24.598407 0.030849 0.652412 -5.414337 -0.000002 0.000001 -0.000001 0.692626 -0.415560 7.465889 -13.273240 35.119750 67.392247 -0.000009 45.820426 0.000015 40.336048 -4.494752 -43.899586 0.083302 -1.341418 17.604823 0.329334 -2.118471 17.670101 0.030392 -0.650805 5.348267 0.000001 -0.000000 -0.000000 -1.602265 -0.553274 -0.493687 13.429574 -16.415050 3.088473 -5.759027 -11.880498 -5.230567 0.000000 0.000001 0.000000 -2.994852 2.852591 32.244124 0.165837 -1.512476 12.513114 0.011854 -0.406811 3.340130 -0.000000 0.000002 -0.000003 1.203835 -5.694249 13.726252 0.207589 -1.689609 14.007551 0.032146 -0.669237 5.500319 -0.000002 0.000000 -0.000002 1.758414 -12.279855 7.865408 0.202900 -1.670731 13.847592 0.079478 -1.050406 8.653263 -0.000001 0.000000 -0.000002 -55.601995 -4.165291 8.958663 62.183121 -0.688836 5.596326 7.049181 -0.070736 -5.934424 -2.368425 -0.000004 0.000000 -0.000000 0.000000 0.000000 -52.170809 -5.360208 -5.360334 61.871016 -2.845451 2.716888 3.466041 0.009919 1.427976 -0.774348 -0.000002 0.000000 0.000000 -0.000000 -0.000000 
-1.030872 154.396286 -2.658825 -13.646493 0.164256 -6.962906 30.037550 1.989247 7.514905 -1.124870 0.053069 -0.872602 -1.124278 0.018200 -0.876209 11.204766 -0.688748 0.475695 -13.184102 -3.540020 0.077662 -0.000000 -0.000000 0.000000 -0.000000 -0.000000 0.000000 -0.000000 -0.000000 0.000000 0.685955 -4.702410 -2.938190 -11.521590 -42.261813 -67.170355 -0.000008 -42.598339 -0.000017 31.493207 6.917610 47.289491 -0.095697 -1.004161 -4.401387 0.614858 2.848913 -24.353265 0.057801 0.892138 -7.413855 -0.000000 -0.000000 -0.000001 1.252324 -1.347051 5.133548 4.902634 12.386837 -0.065194 -0.293903 2.512357 2.362573 0.000000 -0.000000 -0.000000 -1.237521 -5.971570 -11.069591 0.584545 2.781020 -23.735843 0.113904 1.249746 -10.414820 -0.000001 0.000002 -0.000003 0.040159 1.845857 -1.200188 0.405206 2.331433 -19.716543 0.300310 2.015102 -16.950919 -0.000001 -0.000000 0.000002 -0.534223 12.617401 3.214804 0.610353 -1.235006 -24.598423 0.030838 0.652414 -5.414338 0.000002 -0.000000 0.000002 0.693243 -0.437304 7.477224 -13.389949 35.042436 67.451294 0.000002 45.708224 -0.000007 40.492370 -4.462193 -43.947100 0.083304 -1.341416 17.604818 0.329325 -2.118499 17.670114 0.030399 -0.650801 5.348248 0.000003 -0.000002 0.000003 -1.602262 -0.553306 -0.493691 13.429577 -16.415026 3.088475 -5.759025 -11.880506 -5.230567 -0.000001 -0.000001 -0.000000 -2.994864 2.852596 32.244141 0.165829 -1.512483 12.513123 0.011856 -0.406814 3.340128 -0.000000 -0.000001 0.000001 1.203844 -5.694282 13.726241 0.207584 -1.689626 14.007555 0.032148 -0.669234 5.500321 0.000000 0.000000 0.000000 1.758417 -12.279878 7.865405 0.202897 -1.670731 13.847584 0.079485 -1.050408 8.653269 0.000001 -0.000001 0.000001 -55.538283 -4.212087 8.883713 62.176237 -0.627092 5.646134 7.072605 -0.071665 -5.961208 -2.383411 0.000001 0.000001 0.000000 -0.000000 -0.000000 -52.094225 -5.382334 -5.386814 61.848948 -2.831679 2.728883 3.489979 0.009855 1.434167 -0.780100 0.000001 0.000000 0.000000 0.000000 0.000000 
-0.973322 154.375275 -2.718266 -13.730806 0.195600 -6.995401 30.066301 2.005420 7.537745 -1.111534 0.055742 -0.888116 -1.110816 0.019903 -0.891204 11.257536 -0.703540 0.528005 -12.978801 -3.676548 0.246992 0.000000 -0.000000 0.000000 0.000000 -0.000000 0.000000 0.000000 -0.000000 0.000000 0.693922 -4.691537 -3.022495 -11.669103 -42.205966 -67.229292 -0.000010 -42.570052 -0.000011 31.525913 6.898455 47.309302 -0.095698 -1.004200 -4.401392 0.614860 2.848912 -24.353263 0.057804 0.892141 -7.413842 0.000001 -0.000001 0.000000 1.252323 -1.347081 5.133541 4.902633 12.386874 -0.065190 -0.293900 2.512359 2.362578 0.000001 0.000000 -0.000000 -1.237526 -5.971596 -11.069593 0.584543 2.781025 -23.735855 0.113901 1.249749 -10.414822 -0.000001 -0.000000 0.000001 0.040159 1.845837 -1.200193 0.405205 2.331453 -19.716536 0.300313 2.015095 -16.950914 0.000001 -0.000002 0.000007 -0.534223 12.617365 3.214801 0.610360 -1.234958 -24.598419 0.030850 0.652414 -5.414326 -0.000001 -0.000000 0.000003 0.694703 -0.452317 7.505666 -13.526430 34.970480 67.515361 0.000005 45.551560 0.000003 40.631836 -4.386888 -43.978406 0.083311 -1.341436 17.604814 0.329320 -2.118474 17.670118 0.030397 -0.650798 5.348262 0.000003 -0.000000 -0.000002 -1.602265 -0.553303 -0.493693 13.429584 -16.415038 3.088471 -5.759026 -11.880510 -5.230566 0.000000 0.000001 0.000000 -2.994856 2.852576 32.244135 0.165829 -1.512505 12.513145 0.011864 -0.406810 3.340120 0.000001 0.000001 -0.000000 1.203841 -5.694291 13.726240 0.207593 -1.689627 14.007547 0.032135 -0.669262 5.500316 -0.000001 0.000001 -0.000002 1.758418 -12.279887 7.865403 0.202897 -1.670705 13.847592 0.079469 -1.050425 8.653269 -0.000001 0.000001 -0.000001 -55.465398 -4.265135 8.811478 62.173504 -0.557891 5.702283 7.092589 -0.073081 -5.993714 -2.398772 0.000002 -0.000000 -0.000000 0.000000 0.000000 -52.005446 -5.402223 -5.400048 61.821360 -2.822150 2.739462 3.518091 0.010014 1.445071 -0.786765 0.000006 -0.000001 -0.000000 0.000001 0.000000 
-0.915939 154.353073 -2.778759 -13.823864 0.214051 -7.037557 30.091846 2.012884 7.548997 -1.096601 0.057684 -0.905180 -1.095785 0.021534 -0.908320 11.345051 -0.726332 0.618036 -12.667923 -3.886974 0.514633 0.000001 -0.000000 -0.000000 0.000001 -0.000000 -0.000000 0.000001 -0.000000 -0.000000 0.697652 -4.638529 -3.094437 -11.871431 -42.177381 -67.343944 -0.000010 -42.482892 0.000002 31.543706 6.872623 47.371880 -0.095702 -1.004168 -4.401386 0.614866 2.848898 -24.353272 0.057801 0.892144 -7.413841 0.000001 -0.000000 0.000001 1.252325 -1.347073 5.133544 4.902622 12.386849 -0.065193 -0.293903 2.512392 2.362581 0.000003 0.000001 0.000000 -1.237528 -5.971595 -11.069595 0.584542 2.781029 -23.735853 0.113901 1.249763 -10.414827 -0.000000 -0.000000 -0.000001 0.040155 1.845848 -1.200193 0.405206 2.331446 -19.716541 0.300310 2.015113 -16.950911 0.000000 0.000000 0.000002 -0.534228 12.617369 3.214797 0.610363 -1.234971 -24.598419 0.030848 0.652400 -5.414337 0.000000 -0.000000 0.000001 0.697013 -0.459135 7.548982 -13.681035 34.913034 67.579367 0.000021 45.359344 -0.000037 40.742430 -4.274539 -43.973243 0.083307 -1.341443 17.604806 0.329314 -2.118469 17.670119 0.030400 -0.650814 5.348252 0.000001 0.000001 -0.000003 -1.602263 -0.553337 -0.493703 13.429578 -16.414994 3.088474 -5.759028 -11.880518 -5.230571 0.000000 0.000003 0.000000 -2.994858 2.852554 32.244128 0.165831 -1.512462 12.513122 0.011869 -0.406805 3.340128 -0.000000 0.000000 0.000000 1.203840 -5.694288 13.726234 0.207587 -1.689632 14.007550 0.032148 -0.669240 5.500322 0.000003 0.000001 -0.000002 1.758417 -12.279895 7.865403 0.202899 -1.670705 13.847591 0.079477 -1.050443 8.653252 0.000000 0.000001 -0.000001 -55.385403 -4.320083 8.755464 62.176455 -0.489154 5.760810 7.108341 -0.074877 -6.029848 -2.411611 0.000003 -0.000000 0.000000 0.000000 -0.000000 -51.906945 -5.416850 -5.390123 61.789743 -2.821854 2.746654 3.552189 0.010322 1.463568 -0.796973 -0.000006 -0.000001 0.000000 -0.000001 0.000000 
